# xmcd
#
# Track frame offsets:
#	150
#	17438
#	37898
#	53271
#	72145
#	101839
#	119585
#	149154
#	165299
#	185956
#	204527
#	219337
#	236243
#
# Disc length: 3514 seconds
#
# Revision: 0
# Processed by: cddbd v1.5.2PL0 Copyright (c) Steve Scherf et al.
# Submitted via: audiograbber 1.83.01
#
DISCID=b90db80d
DTITLE=Derek and The Dominos - Layla And Other Assorted Love Songs [CD2)
DYEAR=1970
DGENRE=Rock
TTITLE0=Mean Old World (Layla session out-take)
TTITLE1=Roll It Over (Phil Spector produced b-side)
TTITLE2=Tell The Truth (Phil Spector produced a-side)
TTITLE3=It's Too Late (Live on the Johnny Cash TV SHow, 5 November, 1970)
TTITLE4=Got To Get Better In A Little While (Live on the Johnny Cash TV SHow, 5
TTITLE4=November, 1970)
TTITLE5=Matchbox (Live on the Johnny Cash TV SHow, 5 November, 1970) (With Carl
TTITLE5=Perkins)
TTITLE6=Blues Power (Live on the Johnny Cash TV SHow, 5 November, 1970)
TTITLE7=Snake Lake Blues (From April/May 1971 sessions for the Dominos' second 
TTITLE7=album)
TTITLE8=Evil (From April/May 1971 sessions for the Dominos' second album)
TTITLE9=Mean Old Frisco (From April/May 1971 sessions for the Dominos' second a
TTITLE9=lbum)
TTITLE10=One More Chance (From April/May 1971 sessions for the Dominos' second 
TTITLE10=album)
TTITLE11=Got To Get Better In A Little While Jam (From April/May 1971 sessions 
TTITLE11=for the Dominos' second album)
TTITLE12=Got To Get Better In A Little While (From April/May 1971 sessions for 
TTITLE12=the Dominos' second album)
EXTD=
EXTT0=
EXTT1=
EXTT2=
EXTT3=
EXTT4=
EXTT5=
EXTT6=
EXTT7=
EXTT8=
EXTT9=
EXTT10=
EXTT11=
EXTT12=
PLAYORDER=
